<svg xmlns="http://www.w3.org/2000/svg" width="32" height="32" viewBox="0 0 32 32">
  <defs>
    <linearGradient id="grad" x1="0%" y1="0%" x2="100%" y2="100%">
      <stop offset="0%" style="stop-color:#6366f1"/>
      <stop offset="100%" style="stop-color:#06b6d4"/>
    </linearGradient>
  </defs>
  <rect width="32" height="32" rx="6" fill="url(#grad)"/>
  <path d="M16 8c-3.5 0-6.5 2.5-6.5 6 0 1.5.5 2.8 1.3 3.8.5.6.7 1.4.7 2.2v1c0 .6.4 1 1 1h7c.6 0 1-.4 1-1v-1c0-.8.2-1.6.7-2.2.8-1 1.3-2.3 1.3-3.8 0-3.5-3-6-6.5-6zm-2 15h4v1h-4v-1z" fill="white"/>
</svg>
